<svg width="520" height="140" viewBox="0 0 520 140" fill="none" xmlns="http://www.w3.org/2000/svg">
<rect width="520" height="140" rx="4" fill="#246FE0"/>
<path d="M128.409 58.0909H119.659L111.614 84.0227H111.25L103.227 58.0909H94.4545L106.886 93H115.977L128.409 58.0909ZM131.542 93H139.77V58.0909H131.542V93ZM135.679 53.1364C138.292 53.1364 140.429 51.1364 140.429 48.6818C140.429 46.2045 138.292 44.2045 135.679 44.2045C133.042 44.2045 130.906 46.2045 130.906 48.6818C130.906 51.1364 133.042 53.1364 135.679 53.1364ZM145.67 93H153.897V81.2727L156.897 78.0682L167.579 93H177.42L163.102 73.1591L176.624 58.0909H167.011L154.465 72.1136H153.897V46.4545H145.67V93ZM193.337 93.6818C203.564 93.6818 210.064 86.4773 210.064 75.6818C210.064 64.8636 203.564 57.6364 193.337 57.6364C183.11 57.6364 176.61 64.8636 176.61 75.6818C176.61 86.4773 183.11 93.6818 193.337 93.6818ZM193.382 87.0909C187.723 87.0909 184.951 82.0455 184.951 75.6591C184.951 69.2727 187.723 64.1591 193.382 64.1591C198.951 64.1591 201.723 69.2727 201.723 75.6591C201.723 82.0455 198.951 87.0909 193.382 87.0909ZM244.482 58.0909H235.732L227.686 84.0227H227.323L219.3 58.0909H210.527L222.959 93H232.05L244.482 58.0909ZM261.882 93.6818C270.018 93.6818 275.609 89.7045 277.064 83.6364L269.382 82.7727C268.268 85.7273 265.541 87.2727 261.995 87.2727C256.677 87.2727 253.155 83.7727 253.086 77.7955H277.405V75.2727C277.405 63.0227 270.041 57.6364 261.45 57.6364C251.45 57.6364 244.927 64.9773 244.927 75.75C244.927 86.7045 251.359 93.6818 261.882 93.6818ZM253.109 72.25C253.359 67.7955 256.655 64.0455 261.564 64.0455C266.291 64.0455 269.473 67.5 269.518 72.25H253.109ZM281.805 93H290.032V72.4773C290.032 68.0455 293.373 64.9091 297.896 64.9091C299.282 64.9091 301.009 65.1591 301.714 65.3864V57.8182C300.964 57.6818 299.668 57.5909 298.759 57.5909C294.759 57.5909 291.418 59.8636 290.146 63.9091H289.782V58.0909H281.805V93ZM324.177 58.0909H316.927V55.3409C316.927 52.6136 318.063 51.0909 321.131 51.0909C322.427 51.0909 323.518 51.3864 324.199 51.5909L325.858 45.2273C324.79 44.8636 322.449 44.2727 319.608 44.2727C313.54 44.2727 308.699 47.75 308.699 54.7955V58.0909H303.54V64.4545H308.699V93H316.927V64.4545H324.177V58.0909ZM336.287 46.4545H328.06V93H336.287V46.4545ZM357.415 93.6818C367.642 93.6818 374.142 86.4773 374.142 75.6818C374.142 64.8636 367.642 57.6364 357.415 57.6364C347.187 57.6364 340.687 64.8636 340.687 75.6818C340.687 86.4773 347.187 93.6818 357.415 93.6818ZM357.46 87.0909C351.801 87.0909 349.028 82.0455 349.028 75.6591C349.028 69.2727 351.801 64.1591 357.46 64.1591C363.028 64.1591 365.801 69.2727 365.801 75.6591C365.801 82.0455 363.028 87.0909 357.46 87.0909ZM384.832 93H393.423L399.968 69.4091H400.445L406.991 93H415.559L425.445 58.0909H417.036L410.991 82.5H410.65L404.377 58.0909H396.082L389.809 82.6364H389.491L383.355 58.0909H374.968L384.832 93Z" fill="white"/>
</svg>
